HIERARCHY
ROOT root     
{
	OFFSET 0.0000 0.0000 0.0000
	CHANNELS 6 Xposition Yposition Zposition Zrotation Yrotation Xrotation
	JOINT pelvis   
	{
		OFFSET 0.0000 0.0000 0.0000
		CHANNELS 3 Zrotation Yrotation Xrotation
		JOINT thorax   
		{
			OFFSET 0.0000 23.0750 -5.0000
			CHANNELS 3 Zrotation Yrotation Xrotation
			JOINT rclavicle
			{
				OFFSET 0.0000 28.0009 0.0000
				CHANNELS 3 Zrotation Yrotation Xrotation
				JOINT rhumerus 
				{
					OFFSET -18.5725 5.5939 0.0000
					CHANNELS 3 Zrotation Yrotation Xrotation
					JOINT rradius  
					{
						OFFSET -24.8459 0.0000 0.0000
						CHANNELS 3 Zrotation Yrotation Xrotation
						JOINT rhand    
						{
							OFFSET -24.5477 0.0000 0.0000
							CHANNELS 3 Zrotation Yrotation Xrotation
							End Site
							{
								OFFSET -8.1826 0.0000 0.0000
							}
						}
					}
				}
			}
			JOINT lclavicle
			{
				OFFSET 0.0000 28.0009 0.0000
				CHANNELS 3 Zrotation Yrotation Xrotation
				JOINT lhumerus 
				{
					OFFSET 18.5725 5.5939 0.0000
					CHANNELS 3 Zrotation Yrotation Xrotation
					JOINT lradius  
					{
						OFFSET 24.8459 0.0000 0.0000
						CHANNELS 3 Zrotation Yrotation Xrotation
						JOINT lhand    
						{
							OFFSET 24.5477 0.0000 0.0000
							CHANNELS 3 Zrotation Yrotation Xrotation
							End Site
							{
								OFFSET 8.1826 0.0000 0.0000
							}
						}
					}
				}
			}
			JOINT head     
			{
				OFFSET 0.0000 35.2030 0.0000
				CHANNELS 3 Zrotation Yrotation Xrotation
				End Site
				{
					OFFSET 0.0000 11.7343 0.0000
				}
			}
		}
		JOINT rfemur   
		{
			OFFSET -8.2817 0.0000 0.0000
			CHANNELS 3 Zrotation Yrotation Xrotation
			JOINT rtibia   
			{
				OFFSET 0.0000 -43.3627 0.0000
				CHANNELS 3 Zrotation Yrotation Xrotation
				JOINT rfoot    
				{
					OFFSET 0.0000 -38.2947 0.0000
					CHANNELS 3 Zrotation Yrotation Xrotation
					JOINT rtoes    
					{
						OFFSET 0.0000 0.0000 16.6054
						CHANNELS 3 Zrotation Yrotation Xrotation
						End Site
						{
							OFFSET 0.0000 0.0000 5.5351
						}
					}
				}
			}
		}
		JOINT lfemur   
		{
			OFFSET 8.2817 0.0000 0.0000
			CHANNELS 3 Zrotation Yrotation Xrotation
			JOINT ltibia   
			{
				OFFSET 0.0000 -43.3627 0.0000
				CHANNELS 3 Zrotation Yrotation Xrotation
				JOINT lfoot    
				{
					OFFSET 0.0000 -38.2947 0.0000
					CHANNELS 3 Zrotation Yrotation Xrotation
					JOINT ltoes    
					{
						OFFSET 0.0000 0.0000 16.6054
						CHANNELS 3 Zrotation Yrotation Xrotation
						End Site
						{
							OFFSET 0.0000 0.0000 5.5351
						}
					}
				}
			}
		}
	}
}
MOTION
Frames: 19
Frame Time: .0333333
41.036 79.528 1.1858 -30.5663 80.9413 -4.50339 0 -0 0 3.08238 5.32557 18.2816 10.1666 -13.4578 9.63453e-06 40.3446 4.28103 18.2366 -180 74.9639 -180 -1.12851 0.0825994 -0.000800016 -5.59676 20.4566 1.8608e-05 -55.9012 40.46 29.1286 -4.8926e-06 -86.5701 5.19459e-06 -6.2427 4.58944 -0.250401 3.92154 -7.30859 -16.4245 6.36621 -11.8073 -18.6512 -0 -0 44.048 8.16864e-08 -0.233803 -1.9894 0.0081 4.89111e-08 -69.9364 -10.984 10.6605 -64.1916 -0 -0 9.09071 -5.5425e-07 7.80578 -0.353299 -0.0484001 3.51659e-07 -38.4126 
42.513 79.255 1.2914 -31.6718 80.4619 -5.85457 0 -0 0 2.84863 5.43141 17.8968 10.3846 -13.6501 3.30063e-05 40.4156 3.89673 18.5555 -180 74.3945 -180 -0.367295 0.341401 -0.00110004 -5.57734 20.7374 -1.10144e-05 -55.852 40.6986 29.2308 -2.01094e-06 -86.1122 2.5944e-06 -6.51544 4.45909 -0.253902 3.98103 -7.27454 -16.8359 6.07734 -12.0242 -17.5204 -0 -0 44.1449 -7.09718e-08 0.744301 -0.679904 -0.00880005 9.06878e-09 -73.4125 -10.2417 10.9021 -64.1185 -0 -0 10.1373 2.94412e-07 8.37216 -0.437791 -0.0643997 4.924e-07 -37.575 
43.987 78.975 1.3902 -32.6046 79.9986 -6.97523 0 -0 0 2.58006 5.49996 17.4754 10.6546 -13.842 -2.07709e-07 40.5109 3.49603 18.8387 -180 73.894 -180 0.336503 0.575202 0.0017 -5.59527 20.9979 2.01859e-05 -55.8516 40.8348 29.2638 2.83874e-06 -85.518 -2.62512e-06 -6.76232 4.34336 -0.256704 4.061 -7.23372 -17.2602 5.73184 -12.2267 -16.4804 -0 -0 44.2787 3.28475e-08 1.81925 0.728403 0.0230993 2.39153e-08 -76.9722 -9.47386 11.0744 -64.137 -0 -0 11.4234 3.18725e-07 9.01395 -0.2205 -0.0350004 -2.31631e-07 -36.8858 
45.452 78.686 1.485 -33.4453 79.5724 -7.93958 0 -0 0 2.28264 5.52534 17.0116 10.9781 -14.0336 -3.18678e-05 40.626 3.08669 19.092 -180 73.4659 -180 0.958607 0.776793 0.00649996 -5.6503 21.2342 -2.93092e-06 -55.9045 40.8689 29.2188 -3.181e-06 -84.8152 3.48313e-06 -6.97337 4.25234 -0.259207 4.16819 -7.18728 -17.6976 5.34795 -12.3985 -15.5437 -0 -0 44.4476 -1.20865e-06 2.97856 2.20938 0.114902 2.69886e-07 -80.4736 -8.74761 11.2125 -64.315 -0 -0 12.996 9.54339e-07 9.63337 0.337109 0.0572001 6.175e-07 -36.3461 
46.902 78.391 1.5744 -34.1956 79.2023 -8.74603 0 -0 0 1.94469 5.50019 16.5035 11.3601 -14.2273 4.58661e-05 40.7578 2.67562 19.3189 -180 73.1154 -180 1.48222 0.942903 0.0122003 -5.73857 21.4369 7.76422e-06 -56.0109 40.7982 29.0867 3.02389e-06 -83.9765 -2.72161e-06 -7.14103 4.19199 -0.261702 4.31338 -7.13795 -18.1563 4.9271 -12.5368 -14.7217 -0 -0 44.6547 -1.97036e-06 4.21293 3.73799 0.275094 7.42553e-07 -83.8102 -8.07098 11.3046 -64.6656 -0 -0 14.8315 1.48832e-06 10.209 1.27822 0.230196 2.00249e-07 -35.9507 
48.332 78.09 1.6615 -34.918 78.8851 -9.45531 0 -0 0 1.57395 5.42197 15.9592 11.7965 -14.4221 -2.69579e-05 40.913 2.26465 19.5161 -180 72.8472 -180 1.90198 1.0745 0.0177997 -5.86183 21.5982 -1.30806e-05 -56.1675 40.6231 28.8653 0 -83.0354 0 -7.25932 4.16473 -0.264298 4.50021 -7.08939 -18.6437 4.48972 -12.6302 -14.0127 -0 -0 44.896 2.87948e-06 5.50204 5.28818 0.508614 -1.41635e-07 -86.8546 -7.48843 11.3831 -65.2261 -0 -0 16.9513 -4.31879e-06 10.6577 2.57956 0.485299 3.48874e-06 -35.5743 
49.74 77.785 1.7467 -35.6277 78.6373 -10.0919 0 -0 0 1.16767 5.28843 15.3951 12.286 -14.6133 -5.67704e-05 41.1052 1.85289 19.6745 -180 72.6675 -180 2.22322 1.1762 0.0228001 -6.02032 21.706 1.22729e-05 -56.3704 40.3431 28.5455 0 -82.0016 0 -7.32544 4.16857 -0.267 4.73144 -7.04535 -19.1686 4.04297 -12.6791 -13.4118 -0 -0 45.1759 7.34105e-06 6.82707 6.83996 0.816911 1.07773e-06 -89.5061 -6.99744 11.4408 -65.9873 -0 -0 19.3248 3.61731e-06 10.9582 4.19736 0.811894 -8.42993e-06 -35.0662 
51.125 77.478 1.8314 -36.3444 78.4548 -10.6871 0 -0 0 0.729607 5.10209 14.8351 12.8196 -14.793 -9.44864e-05 41.3525 1.43379 19.7825 -180 72.5772 -180 2.4624 1.25623 0.0270003 -6.2174 21.749 -4.32544e-06 -56.6126 39.9524 28.126 0 -80.875 -0 -7.3377 4.19829 -0.269305 5.00309 -7.01029 -19.7387 3.59716 -12.6788 -12.9069 -0 -0 45.492 2.08617e-06 8.16231 8.37997 1.19751 -5.26754e-06 -91.697 -6.59587 11.4828 -66.923 -0 -0 21.9175 -4.9591e-06 11.09 6.03391 1.18038 -2.47163e-06 -34.2025 
52.488 77.171 1.9151 -37.0546 78.3481 -11.2509 0 -0 0 0.260191 4.87017 14.3081 13.3873 -14.9551 1.169e-05 41.6815 1.00339 19.8181 -180 72.5914 -180 2.64254 1.3255 0.0305992 -6.45043 21.7187 5.50864e-05 -56.8858 39.4402 27.6126 -1.52388e-06 -79.6614 1.82698e-06 -7.29804 4.24577 -0.2709 5.30733 -6.98947 -20.3617 3.1568 -12.6361 -12.4813 -0 -0 45.8483 8.87817e-07 9.47455 9.89691 1.64298 1.85661e-05 -93.4343 -6.26593 11.4965 -67.9847 -0 -0 24.6707 1.9943e-07 11.0648 7.9622 1.55173 3.04355e-07 -32.7973 
53.829 76.866 1.9979 -37.7461 78.3131 -11.7906 0 -0 0 -0.24127 4.59623 13.8446 13.9758 -15.075 -8.90049e-05 42.1295 0.542172 19.7562 -180 72.7112 -180 2.79863 1.39466 0.0341017 -6.74306 21.5898 2.94629e-05 -57.1782 38.8239 26.9836 0 -78.3886 0 -7.20348 4.30171 -0.270906 5.63059 -6.97686 -21.0339 2.7231 -12.5556 -12.1194 -0 -0 46.2581 -5.26914e-06 10.7471 11.4181 2.15191 -3.41139e-05 -94.6172 -5.99039 11.4764 -69.1139 -0 -0 27.5337 6.51609e-06 10.9036 9.83208 1.88401 1.52746e-05 -30.7501 
55.151 76.569 2.0767 -38.3813 78.3419 -12.2865 0 -0 0 -0.77688 4.29583 13.4754 14.5747 -15.149 8.93537e-05 42.7255 0.0513457 19.572 -180 72.9542 -180 2.95381 1.47515 0.0379986 -7.07779 21.3681 4.60849e-05 -57.4855 38.0682 26.2655 -1.18507e-06 -77.035 1.48888e-06 -7.06015 4.35584 -0.2688 5.95569 -6.97887 -21.7504 2.29326 -12.4439 -11.8049 -0 -0 46.7204 -1.21397e-05 11.9301 12.9386 2.70854 -1.57346e-05 -95.3806 -5.75215 11.4058 -70.2389 -0 -0 30.425 1.69543e-06 10.6562 11.506 2.14937 -2.94397e-06 -28.1688 
56.453 76.281 2.1497 -38.9281 78.4358 -12.7274 0 -0 0 -1.34792 3.97894 13.2223 15.174 -15.1582 -5.09238e-05 43.5053 -0.474906 19.238 -180 73.3274 -180 3.13297 1.57521 0.0430999 -7.46221 21.0411 2.58836e-05 -57.7956 37.1731 25.4571 0 -75.6163 0 -6.86779 4.39899 -0.2641 6.26191 -6.98883 -22.4929 1.8671 -12.3124 -11.5317 -0 -0 47.2491 4.83873e-05 12.9942 14.4873 3.30381 6.32775e-05 -95.7301 -5.54001 11.2776 -71.2969 -0 -0 33.287 1.36345e-05 10.3729 12.8633 2.33355 -1.02559e-05 -25.287 
57.736 76.01 2.2149 -39.3508 78.585 -13.0892 0 -0 0 -1.9535 3.65727 13.0994 15.7611 -15.087 -4.49551e-05 44.4941 -1.0339 18.7318 -180 73.8546 -180 3.34769 1.69861 0.049602 -7.8935 20.6118 -8.93435e-05 -58.0974 36.1306 24.5679 -9.40531e-07 -74.1234 1.24531e-06 -6.62615 4.4236 -0.256197 6.52716 -6.9997 -23.237 1.44626 -12.1658 -11.2983 -0 -0 47.8549 6.62178e-05 13.8998 16.0932 3.92405 -6.53974e-06 -95.6985 -5.34477 11.0863 -72.2354 -0 -0 36.0682 1.00707e-05 10.1074 13.8174 2.43787 2.83981e-06 -22.3985 
58.998 75.757 2.2708 -39.6355 78.773 -13.3586 0 -0 0 -2.58837 3.34255 13.1097 16.3228 -14.9236 0.00012252 45.7125 -1.6163 18.0392 -180 74.5459 -180 3.59408 1.84375 0.0579012 -8.37013 20.0765 5.15329e-05 -58.3826 34.9432 23.6026 -8.43548e-07 -72.5725 1.14893e-06 -6.33439 4.4256 -0.244999 6.72851 -7.00299 -23.948 1.03705 -12.0122 -11.1092 -0 -0 48.5453 0.000101754 14.6096 17.7806 4.55076 -1.48167e-05 -95.2994 -5.1627 10.8344 -73.0163 -0 -0 38.731 -7.33474e-05 9.90741 14.31 2.4721 -1.15605e-05 -19.7375 
60.238 75.528 2.3172 -39.7736 78.9969 -13.5359 0 -0 0 -3.24233 3.045 13.2488 16.8541 -14.6662 -2.70604e-05 47.1667 -2.19318 17.1543 -180 75.4199 -180 3.84868 2.00615 0.0674002 -8.8703 19.4682 3.02711e-05 -58.6437 33.5826 22.5989 0 -70.9456 0 -5.98747 4.40215 -0.230297 6.84489 -6.98835 -24.5859 0.650252 -11.8521 -10.9711 -0 -0 49.3231 0.000122194 15.0844 19.5584 5.15556 5.89952e-05 -94.51 -4.98827 10.5284 -73.6157 -0 -0 41.2479 -1.53134e-05 9.80888 14.3266 2.44975 -2.56467e-06 -17.5177 
61.454 75.326 2.3542 -39.7603 79.2286 -13.6001 0 -0 0 -3.90948 2.76784 13.4917 17.3431 -14.2937 0.000143263 48.8477 -2.7539 16.0813 -180 76.4868 -180 4.0763 2.17256 0.0772984 -9.41763 18.7622 -1.21565e-05 -58.8689 32.1158 21.5062 9.93097e-07 -69.29 -6.86243e-07 -5.5793 4.35802 -0.212507 6.85937 -6.93828 -25.1009 0.292867 -11.6949 -10.9064 -0 -0 50.2018 -1.29733e-05 15.3057 21.4653 5.71891 -9.01744e-05 -93.3187 -4.82201 10.1788 -74.0322 -0 -0 43.5997 2.55292e-05 9.83172 13.8598 2.37706 -9.67611e-07 -15.612 
62.643 75.152 2.3838 -39.6339 79.454 -13.5848 0 -0 0 -4.57101 2.52046 13.8216 17.7878 -13.8289 -5.28367e-05 50.7262 -3.24574 14.8481 -180 77.7629 -180 4.21671 2.33511 0.0859979 -9.97261 18.016 5.3369e-06 -59.0635 30.4966 20.3827 9.30299e-07 -67.5804 -6.22565e-07 -5.10292 4.29647 -0.191499 6.75909 -6.84708 -25.4518 -0.016604 -11.5382 -10.9193 -0 -0 51.1708 -0.000160383 15.2242 23.4541 6.18232 1.97166e-05 -91.6369 -4.65555 9.80151 -74.2644 -0 -0 45.7748 1.53927e-05 9.98128 12.9692 2.2618 -1.14668e-05 -14.1736 
63.804 75.007 2.4077 -39.4031 79.6676 -13.4902 0 -0 0 -5.21702 2.30257 14.2086 18.1848 -13.2745 7.91207e-05 52.7579 -3.63574 13.4931 -180 79.2511 -180 4.20464 2.48401 0.0912015 -10.5277 17.2518 2.44118e-05 -59.2277 28.7447 19.2212 -8.01642e-07 -65.8406 1.2382e-06 -4.54731 4.22379 -0.167795 6.5404 -6.70133 -25.5968 -0.26851 -11.3881 -11.0263 -0 -0 52.2287 4.02585e-05 14.819 25.5022 6.49843 4.24928e-05 -89.4191 -4.48594 9.4121 -74.3307 -0 -0 47.7638 -4.2346e-05 10.2489 11.7259 2.10452 -3.25864e-06 -13.139 
64.934 74.892 2.428 -39.1181 79.8458 -13.3502 0 -0 0 -5.83722 2.11349 14.6207 18.5336 -12.6464 6.06994e-05 54.89 -3.89522 12.0691 -180 80.9516 -180 3.9714 2.61364 0.0906012 -11.0762 16.4881 -2.48593e-05 -59.3692 26.885 18.0057 -5.18358e-07 -64.0886 8.28105e-07 -3.90449 4.14914 -0.141496 6.206 -6.49382 -25.5035 -0.452693 -11.249 -11.2405 -0 -0 53.3721 4.89871e-05 14.0624 27.5467 6.60778 -2.18687e-05 -86.6306 -4.3102 9.02697 -74.2561 -0 -0 49.5615 -3.31549e-06 10.6139 10.2267 1.90563 9.00621e-06 -12.4605 
